<?xml version="1.0" encoding="utf-8"?>
<!-- Generator: Adobe Illustrator 26.2.1, SVG Export Plug-In . SVG Version: 6.00 Build 0)  -->
<svg version="1.1" id="Capa_1" xmlns="http://www.w3.org/2000/svg" xmlns:xlink="http://www.w3.org/1999/xlink" x="0px" y="0px"
	 viewBox="0 0 425.2 425.2" style="enable-background:new 0 0 425.2 425.2;" xml:space="preserve">
<path d="M395.4,297.8c-1.1-34.5-25-70.3-36.4-85.5c4.5,0.1,7.9,0.2,9.7,0.2c0,0,0.9-0.3,0.8-0.9c-0.1-0.5-1.4-1.3-6-2.1
	c2.3-1.3,4.5-3.8,6.2-8.1c6.8-17.2,5.4-27.7,13-34.9c0,0-13.9-1.6-21.7,14.4c-5.2,10.7-1.8,14.1-6.8,17.6c-1.4-3.5-4.6-4.1-6.8-4.1
	c-0.9-3.6-2.3-7.1-5-11.4c-9.1-14.8-24.5-16.8-24.5-16.8c7.6,7.2,5.5,18.2,12.7,31.2c2,3.6,4.3,5.8,6.4,7.1
	c-21.7-4.4-49.3-10.2-51-10.5c-1.9-2-4.6-4-8.1-6.1c-13.7-7.8-25.3,1.7-31.7,9.2c-15.4,13.5-26.5,12.4-53.9,12.1
	c0.7-9.8-2.2-21.5-12.6-34.7c-24-30.6-25.9-37.8-32.4-61.7c-6.5-23.9,1.6-40.4-6.6-43.2c-1.3-0.4-2.6-0.2-3.8,1.3
	c-0.4,0.5-0.8,1.1-1.1,1.6c-0.9,1.9-1.4,4-1.7,6.1c-0.6,3.7-0.7,7.4-0.7,11.1c-0.6-0.8-1.2-1.5-2.1-2c-0.7-0.4-1.5-0.6-2.3-0.5
	c-0.8,0.1-1.5,0.4-2.2,0.8c-0.6,0.3-1.3,1-1.6,1.7c-0.4,0.7-0.6,1.4-0.8,2.1c-0.4,1.4-0.5,2.8-0.6,4.3c-0.1,2.9,0,5.7,0.3,8.5
	c0.3,2.6,0.6,5.1,1.1,7.6c-1.8,0.4-3.3,1.4-4.5,2.7c-1.3,1.6-2,3.6-2.3,5.5c-0.4,3.4,0.2,6.6,1,9.7c-0.5-0.1-1-0.2-1.5-0.2
	c-1.1,0-2.4,0.2-3.3,1.1c-1,0.8-1.4,1.9-1.7,3c-0.2,1.1-0.3,2.1-0.3,3.1c0.2,3.4,1,6.6,2,9.7c-0.4-0.1-0.7-0.1-1.1-0.1
	c-1.2,0.1-2.3,0.7-3,1.7c-1.3,2-0.9,4.2-0.4,6.1c0.9,3,2.7,5.6,4.6,7.9c-0.4,0.1-0.8,0.2-1.2,0.5c-1.1,0.7-1.7,1.9-1.8,3
	c-0.2,1.3,0,2.5,0.4,3.6c-18.1-1.4-26.3-4.9-42.9-11.9c-22.8-9.7-30.7-26.3-38-21.6c-1.1,0.7-1.8,2-1.3,3.8c0.1,0.6,0.4,1.3,0.6,1.8
	c0.9,1.9,2.3,3.6,3.7,5.1c2.5,2.7,5.3,5.1,8.2,7.4c-1-0.1-1.9,0.1-2.9,0.4c-0.7,0.3-1.4,0.8-1.8,1.5c-0.4,0.7-0.7,1.4-0.8,2.2
	c-0.1,0.7,0,1.6,0.3,2.3c0.3,0.7,0.7,1.3,1.1,1.9c0.9,1.2,1.9,2.2,3,3.1c2.1,1.9,4.5,3.5,6.8,5c2.2,1.4,4.4,2.7,6.7,3.8
	c-0.8,1.6-1,3.5-0.6,5.2c0.4,2,1.6,3.8,2.9,5.2c2.4,2.4,5.3,4,8.3,5.2c-0.4,0.3-0.7,0.7-1.1,1.1c-0.7,0.8-1.3,2-1.2,3.3
	c0,1.3,0.6,2.3,1.3,3.2c0.7,0.9,1.5,1.5,2.3,2.2c2.8,2,5.8,3.3,8.9,4.5c-0.3,0.2-0.5,0.5-0.7,0.8c-0.7,0.9-0.9,2.3-0.5,3.4
	c0.8,2.3,2.8,3.3,4.5,4.1c3,1.1,6,1.3,9,1.3c-0.2,0.4-0.3,0.8-0.3,1.2c-0.1,1.2,0.4,2.5,1.2,3.3c1.6,1.6,3.6,2.2,5.5,2.5
	c1.9,0.3,3.8,0.3,5.8,0.2c1.2-0.1,2.4-0.2,3.6-0.4c-0.2,0.6-0.3,1.2-0.2,1.9c0.2,1.5,1.2,2.6,2.3,3.2c2.2,1.2,4.7,1.3,6.9,1.1
	c2.3-0.2,4.5-0.7,6.6-1.3c1.4-0.4,2.9-0.8,4.3-1.3c-0.1,0.3-0.1,0.6-0.1,0.9c0,0.4,0,0.8,0.1,1.1c-2.3,1.5-4.4,3-6.2,4.3
	c-6.7,4.1-24.7,14.2-40.2,15.5c-1.6,0.1-3.5,0.3-5.7,0.6c-0.3,0-0.6,0.1-0.9,0.1c-3.7,0.5-7.4,1.1-11,2.2c-1.8,0.6-3.6,1.2-5.2,2.1
	c-1.5,0.8-2.9,1.8-3.9,3.2c-0.1,0.2-0.3,0.4-0.4,0.6c0,0,0,0,0,0c-0.2,0.9,0,1.8,0.4,2.5c0.5,0.8,1.2,1.3,1.9,1.7
	c1.4,0.7,2.8,0.9,4.3,1c-0.1,0.2-0.3,0.4-0.4,0.7c-0.2,0.4-0.2,1,0,1.5c0.2,0.5,0.6,0.9,1,1.1c0.4,0.3,0.8,0.4,1.3,0.6
	c1.4,0.4,2.9,0.5,4.4,0.5c-0.1,0.2-0.2,0.3-0.2,0.5c-0.1,0.5,0,1.1,0.3,1.5c0.7,0.8,1.6,1,2.4,1c1.4,0,2.7-0.4,3.9-0.8
	c0,0.2,0,0.4,0,0.6c0.1,0.5,0.5,1,1,1.2c0.9,0.4,1.8,0.4,2.7,0.2c0.9-0.2,1.6-0.4,2.4-0.8c0.5-0.2,0.9-0.5,1.4-0.7
	c0,0.3,0.1,0.6,0.2,0.8c0.3,0.6,0.9,0.9,1.5,1c1.1,0.2,2.1-0.2,3-0.6c0.9-0.4,1.8-1,2.5-1.5c0.5-0.4,1-0.8,1.6-1.2
	c0,0.1,0,0.2,0.1,0.4c0.1,0.5,0.5,0.9,1,1.1c0.9,0.4,1.8,0.2,2.5-0.1c1.1-0.4,2.1-1,3-1.7c0,0,0,0.1,0,0.1c0,0.5,0.2,1.1,0.7,1.4
	c0.5,0.3,1,0.3,1.4,0.3c0.5,0,0.9-0.2,1.3-0.3c0.8-0.3,1.6-0.8,2.3-1.3c0.7-0.5,1.4-1,2.1-1.5c2.3-1.5,4.7-2.9,7.1-4
	c3.5,0.9,7.6,1.6,11.9,2.3c0,1,0.1,2,0.3,2.9c-6.9,8.1-17.2,19.7-24.5,27c-0.8,0.4-6.3,3.3-11.2,8.8c0,0-0.1,0.1-0.1,0.1
	c-6.9,4.9-16.6,11.5-24.4,16.4c-0.2,0.1-0.5,0.3-0.8,0.4c-0.6,0.3-1.1,0.6-1.5,0.8c-0.1,0-0.3,0-0.5,0.1c-3.4,0.5-6.8,0.1-6.8,0.1
	c1.9,0.8,3.3,1.1,4.1,1.3c-0.1,0-0.2,0.1-0.2,0.1c-1.6,0.4-2.9,0.6-4.1,0.7c-0.9,0-2-0.1-3.3-0.2c-0.1,0-0.1,0-0.2,0
	c-1.2-0.3-2.3-0.7-3.5-1.2c-0.6-0.2,2.5,2.6,6.2,2.7l0,0.1c-2.3,1-5.3,1-11.1,0.3c-0.6-0.1,1.1,2,5.9,2.3c2.1,0.2,3.9,0.1,5.3-0.1
	c-0.5,0.3-1,0.5-1.5,0.7c-0.4,0-0.9-0.1-1.3-0.2c-0.2,0-0.1,0.2,0.2,0.5c-2.5,0.7-4.5,0.4-4.5,0.8c0,0.4,3,1.1,6.5,0.3
	c0.9,0.3,2.2,0.6,3.7,0.7c2.1,0.2,3.9,0.1,5.3-0.1c-3.6,2-7,1.4-7.1,1.8c-0.1,0.4,4.6,1.5,8.8-0.6c3.5-1.4,5.6-3.6,5.9-4
	c5.1-3.1,21.4-13.1,31.1-19.5c2.7-0.8,6-2.1,8.6-6.1c0.2-0.2,0.3-0.4,0.4-0.6c5.1-4.9,18.8-18.4,27.9-27.4
	c4.3-0.5,10.7-2.9,15.5-5.2c0.1-0.1,0.2-0.1,0.3-0.2c31.5,0.9,40.8-14.1,48-19.8c9.8-7.8,14.3-13.8,30.4-22.2
	c14.3-7.4,23.4-9.4,25.2-9.7c0.1,0,0.2,0,0.3,0c7.8-0.3,8.9-0.9,22.5-1.5c3.9-0.2,7.5-1.3,10.2-3.1c0,0,0.1,0,0.1,0
	c0,0,26.2,1.2,49.5,2c-11.1,14.7-35.8,51.2-37,86.3c-1.4,41.2,18,58,48.5,58C376.9,355.8,396.8,339,395.4,297.8z M103.3,295
	c-0.8,0.4-6.3,3.3-11.2,8.8c0,0-0.1,0.1-0.1,0.1c-6.9,4.9-16.6,11.5-24.4,16.4c-0.2,0.1-0.5,0.3-0.8,0.4c-0.6,0.3-1.1,0.6-1.5,0.8
	c-0.1,0-0.3,0-0.5,0.1c-3.4,0.5-6.8,0.1-6.8,0.1c1.9,0.8,3.3,1.1,4.1,1.3c-0.1,0-0.2,0.1-0.2,0.1c-1.6,0.4-2.9,0.6-4.1,0.7
	c-0.9,0-1.8-0.1-3-0.2c0.9-0.7,1.4-1.3,1.6-1.4c5.1-3.1,21.4-13.1,31.1-19.5c2.7-0.8,6-2.1,8.6-6.1c0.2-0.2,0.3-0.4,0.4-0.6
	c5.1-4.9,18.8-18.4,27.9-27.4c1-0.1,2.2-0.3,3.4-0.7c0,0.1,0,0.1,0,0.2C120.9,276,110.6,287.6,103.3,295z M51,325.8
	c1.1-0.5,2-1,2.8-1.6c0.9,0.4,2,0.7,3.2,0.7l0,0.1C55.5,325.7,53.7,325.9,51,325.8z M345.2,241.8c-19.1,0-9.5-20.8-4.3-30.1
	c1,0,2,0.1,3.1,0.1c1.8,0.6,3.7,0.6,5.3,0.2c0.7,0,1.4,0,2.1,0.1C356,221.6,364,241.8,345.2,241.8z"/>
</svg>
